<svg id="Capa_1" enable-background="new 0 0 511.999 511.999" height="512" viewBox="0 0 511.999 511.999" width="512" xmlns="http://www.w3.org/2000/svg"><g><path fill="#2ecc71" d="m63.261 226.652 6.239-5.452v275.799h-14c-4.143 0-7.5 3.358-7.5 7.5s3.357 7.5 7.5 7.5h305.893c4.143 0 7.5-3.358 7.5-7.5s-3.357-7.5-7.5-7.5c-11.192 0-41.425 0-54.021 0-7.732 0-14.032-6.274-14.064-14.004 183.138 0 179.4-.059 181.884-.06 0 7.755-6.309 14.064-14.063 14.064h-64.735c-4.143 0-7.5 3.358-7.5 7.5s3.357 7.5 7.5 7.5h64.735c16.025 0 29.063-13.038 29.063-29.064 0-7.61-5.748-14.94-15.921-14.94 1.524-3.29 2.381-6.95 2.381-10.808v-96.063c0-14.23-11.577-25.808-25.808-25.808h-8.344v-39.904c0-4.142-3.357-7.5-7.5-7.5s-7.5 3.358-7.5 7.5v39.904h-109.844c-6.597 0-12.621 2.491-17.188 6.578l-9.156-3.546-.002-10.19c15.506-10.904 25.667-28.918 25.667-49.272v-26.449c5.921-2.656 10.062-8.595 10.062-15.493v-40.119c0-6.537-2.654-12.595-7.474-17.057-4.703-4.355-10.907-6.581-17.043-6.112-.896.068-1.888-.335-2.064-1.242-2.818-14.408-12.232-21.713-27.98-21.713h-52.715c-23.451 0-42.53 19.079-42.53 42.53v38.445c0 10.742 7.652 19.73 17.792 21.801v25.409c0 18.653 9.179 37.702 25.635 49.245v10.003l-68.693 26.829c-.042.017-.084.034-.126.051-15.338 6.313-31.847 24.379-31.847 49.127v82.858h-35.494v-288.909l171.5-149.887 171.5 149.888v52.321c0 4.142 3.357 7.5 7.5 7.5s7.5-3.358 7.5-7.5v-39.212l6.239 5.453c10.381 9.07 26.206 8.006 35.274-2.373 9.094-10.402 8.035-26.181-2.371-35.275l-39.143-34.21v-112.057h1.987c7.463 0 13.535-6.072 13.535-13.536v-15.666c.001-7.464-6.071-13.536-13.534-13.536h-69.263c-7.463 0-13.535 6.072-13.535 13.536v15.667c0 7.463 6.072 13.536 13.535 13.536h1.987v54.996l-104.759-91.559c-9.379-8.196-23.525-8.197-32.904 0l-209.191 182.829c-10.404 9.092-11.467 24.87-2.371 35.276 9.077 10.386 24.903 11.437 35.275 2.371zm243.586 134.472c0-5.902 4.805-10.808 10.809-10.808h133.188c5.959 0 10.808 4.849 10.808 10.808v96.063c0 5.959-4.849 10.808-10.808 10.808h-133.189c-5.959 0-10.808-4.848-10.808-10.808zm-107.365-122.198c-3.998 0-7.25-3.252-7.25-7.25v-38.445c0-15.18 12.35-27.53 27.53-27.53h52.715c10.545 0 12.196 4.158 13.26 9.592 1.614 8.255 9.325 13.981 17.936 13.319 1.944-.156 4.077.658 5.701 2.162.995.922 2.665 2.934 2.665 6.052v40.119c0 4.401-11.609 1.379-12.518-7.561-.116-1.179.131-2.869-1.083-5.092-3.21-5.88-11.693-5.825-14.84.061-4.821 9.016-14.142 14.574-24.287 14.574-10.325-.001-53.395-.001-59.829-.001zm10.542 39.96v-24.96h49.287c10.869 0 21.39-4.188 29.277-11.678 3.132 4.817 7.84 8.518 13.388 10.369v26.269c0 25.033-20.408 45.213-45.214 45.213-27.925 0-46.738-21.687-46.738-45.213zm74.291 72.839c.259.1 2.116.819 2.375.919-17.518 17.86-46.034 15.727-61.546-.158l3.601-1.406c2.733-1.067 6.914-4.836 6.914-11.057v-4.312c12.233 4.147 27.055 4.797 40.65.12l.002 4.207v.036c.014 5.204 3.16 9.778 8.004 11.651zm-149.322 62.416c0-19.015 13.431-31.471 22.497-35.231l52.827-20.632c19.401 24.928 56.799 29.237 81.531 9.85v89.06c0 3.733.838 7.485 2.373 10.808-10.209 0-15.913 7.392-15.913 14.94 0 5.052 1.374 10.031 3.635 14.064h-100.266c0-8.157 0-73.88 0-83.147 0-4.142-3.357-7.5-7.5-7.5s-7.5 3.358-7.5 7.5v23.65h-31.685v-23.362zm0 38.361h31.685v44.497h-31.685zm241.696-424.764v-12.738h66.333v12.738c-7.892 0-58.692 0-66.333 0zm50.811 15v98.947l-35.288-30.841v-68.106zm-387.272 157.561 209.19-182.828c3.752-3.279 9.41-3.279 13.162 0 9.32 8.145 200.108 174.89 209.19 182.829 4.162 3.639 4.586 9.948.948 14.11-3.627 4.15-9.959 4.578-14.11.949-8.206-7.172-186.675-163.151-194.904-170.344-4.387-3.835-11.013-3.844-15.408 0l-194.906 170.343c-4.152 3.63-10.482 3.202-14.111-.949-3.631-4.156-3.22-10.465.949-14.11z"/><path fill="#2ecc71" d="m378.892 416.655h10.715c4.143 0 7.5-3.358 7.5-7.5s-3.357-7.5-7.5-7.5h-10.715c-4.143 0-7.5 3.358-7.5 7.5s3.358 7.5 7.5 7.5z"/></g></svg>