<?xml version="1.0" encoding="UTF-8" standalone="no"?><!DOCTYPE svg PUBLIC "-//W3C//DTD SVG 1.1//EN" "http://www.w3.org/Graphics/SVG/1.1/DTD/svg11.dtd"><svg width="100%" height="100%" viewBox="0 0 656 680" version="1.1" xmlns="http://www.w3.org/2000/svg" xmlns:xlink="http://www.w3.org/1999/xlink" xml:space="preserve" xmlns:serif="http://www.serif.com/" style="fill-rule:evenodd;clip-rule:evenodd;stroke-linecap:round;stroke-linejoin:round;stroke-miterlimit:1.5;"><path d="M616.555,400.361l0.254,-0.071l24.118,-46.791l0.514,-93.808c8.333,28.881 12.789,59.384 12.789,90.923c0,180.736 -146.342,327.471 -326.594,327.471c-180.252,0 -326.594,-146.735 -326.594,-327.471c0,-151.276 102.522,-278.732 241.667,-316.245c-0.229,1.555 -0.33,3.145 -0.33,4.758c0,10.051 3.909,19.196 10.316,25.968c-127.269,32.793 -221.47,149.194 -221.47,287.59c0,163.821 131.992,296.822 294.569,296.822c146.466,0 268.108,-107.947 290.761,-249.146Z" style="fill:#000;stroke:#000;stroke-width:2.08px;"/><path d="M618.843,327.899c19.577,-36.507 22.257,-64.2 22.551,-68.367l0.047,0.159l-0.514,93.808l-24.118,46.791c-6.851,2.013 -13.158,3.786 -18.949,5.345l18.695,-5.274c2.512,-15.51 3.808,-31.442 3.808,-47.676c0,-8.601 -0.364,-17.116 -1.099,-25.535l-0.421,0.749Z" style="fill:#000;stroke:#000;stroke-width:2.08px;"/><path d="M618.843,327.899l0.421,-0.749c0.735,8.419 1.099,16.934 1.099,25.535c0,16.234 -1.296,32.166 -3.808,47.676l-18.695,5.274l-1.157,0.298l-14.524,3.736l-1.977,0.457l-10.849,2.504l-2.467,0.5l-7.666,1.553l-2.632,0.453l-4.969,0.855l-2.48,0.346l-2.748,0.384l-3.991,0.385c2.651,-2.107 5.23,-4.22 7.74,-6.347l0.529,-0.434l1.882,-1.642l3.722,-3.204l1.216,-1.104l0.977,-0.852l1.698,-1.576l2.531,-2.298l1.778,-1.701l1.33,-1.234l1.28,-1.264l1.704,-1.63l2.355,-2.375l1.554,-1.534l0.826,-0.867l1.035,-1.044l3.091,-3.286l1.509,-1.583l0.39,-0.436c1.936,-2.102 3.811,-4.2 5.633,-6.287l0.021,-0.023l0.244,-0.29l4.577,-5.408l0.436,-0.543l0.383,-0.455l1.315,-1.661l2.435,-3.034l0.817,-1.073l0.685,-0.865l1.158,-1.558l1.63,-2.142l1.165,-1.616l0.922,-1.239l0.865,-1.239l1.069,-1.482l1.499,-2.196l1.081,-1.547l0.56,-0.855l0.62,-0.907l1.886,-2.917l1.1,-1.679l0.276,-0.448l0.245,-0.38l2.958,-4.835c2.055,-3.435 3.961,-6.808 5.716,-10.117Z" style="fill:#000;stroke:#000;stroke-width:2.08px;"/><g><path d="M280.454,1.042c20.993,0 38.036,17.043 38.036,38.036c0,20.993 -17.043,38.037 -38.036,38.037c-20.993,0 -38.037,-17.044 -38.037,-38.037c0,-20.993 17.044,-38.036 38.037,-38.036Zm-0.353,18.412c10.977,0 19.888,8.911 19.888,19.888c0,10.977 -8.911,19.889 -19.888,19.889c-10.977,0 -19.889,-8.912 -19.889,-19.889c0,-10.977 8.912,-19.888 19.889,-19.888Z" style="fill:#000;stroke:#231f20;stroke-width:2.08px;"/></g><path d="M328.682,298.836c-22.029,0 -39.89,17.616 -39.89,39.343c0,21.727 17.861,39.344 39.89,39.344c22.03,0 39.891,-17.617 39.891,-39.344c0,-21.727 -17.861,-39.343 -39.891,-39.343Zm-111.74,117.602l-8.798,-2.207c-65.613,-16.347 -103.237,-44.103 -103.237,-76.134c0,-32.032 37.638,-59.774 103.237,-76.135l8.798,-2.193l2.475,8.608c7.623,25.658 16.267,47.496 26.561,68.381l-1.147,-2.565l1.889,3.917l-1.889,3.918c-9.175,18.334 -17.833,40.171 -24.631,62.781l-0.783,3.035l-2.475,8.594Zm-12.896,-134.363c-49.863,13.809 -80.467,34.943 -80.467,56.022c0,21.064 30.604,42.198 80.467,56.021c7.161,-22.348 14.63,-40.902 23.246,-58.808l-1.203,2.787c-7.427,-15.147 -14.91,-33.702 -21.134,-52.808l-0.909,-3.228l0,0.014Zm236.377,134.363l-2.475,-8.622c-7.609,-25.644 -16.253,-47.468 -26.575,-68.34l1.133,2.538l-1.889,-3.917l1.889,-3.918c9.175,-18.334 17.833,-40.157 24.645,-62.767l0.783,-3.049l2.475,-8.608l8.826,2.193c65.585,16.347 103.223,44.103 103.223,76.149c0,32.045 -37.638,59.773 -103.223,76.134l-8.812,2.207Zm-9.147,-78.328c8.952,19.106 16.351,37.895 22.043,56.022c49.891,-13.837 80.467,-34.971 80.467,-56.022c0,-21.078 -30.604,-42.198 -80.467,-56.021c-7.147,22.334 -14.616,40.874 -23.246,58.794l1.203,-2.759l0,-0.014Zm-227.356,-56.118l-2.476,-8.594c-18.449,-64.119 -12.854,-110.07 15.344,-126.1c27.652,-15.74 72.06,2.856 118.594,49.952l6.336,6.414l-6.336,6.415c-16.029,16.416 -30.869,34.239 -44.226,53.152l-0.951,1.421l-2.518,3.545l-4.378,0.373c-26.225,2.083 -50.297,6.056 -73.627,11.864l3.049,-0.649l-8.811,2.207Zm35.359,-121.947c-4.994,0 -9.414,1.062 -13.148,3.186c-18.533,10.54 -21.82,47.179 -9.05,96.62c16.924,-3.931 37.499,-7.187 58.465,-9.077l1.833,-0.138c12.504,-17.436 25.064,-32.694 38.547,-47.096l-0.279,0.304c-29.093,-27.935 -56.633,-43.799 -76.368,-43.799Zm178.807,374.533l0.014,-0.013c-26.575,0 -60.702,-19.741 -96.117,-55.608l-6.336,-6.415l6.336,-6.414c16.029,-16.416 30.855,-34.239 44.198,-53.166l0.951,-1.421l2.518,-3.545l4.364,-0.373c26.225,-2.069 50.311,-6.042 73.669,-11.836l-3.049,0.635l8.797,-2.194l2.504,8.608c18.407,64.078 12.826,110.043 -15.372,126.073c-6.28,3.573 -13.819,5.669 -21.847,5.669l-0.658,0l0.028,0Zm-76.368,-62.201c29.093,27.935 56.633,43.799 76.368,43.799l0.014,0c4.98,0 9.414,-1.062 13.134,-3.187c18.533,-10.539 21.834,-47.192 9.05,-96.634c-16.952,3.946 -37.513,7.201 -58.493,9.078l-1.819,0.138c-12.49,17.45 -25.05,32.707 -38.533,47.123l0.279,-0.303l0,-0.014Zm111.727,-190.385l-8.797,-2.193c-20.323,-5.187 -44.409,-9.16 -69.082,-11.119l-1.552,-0.096l-4.364,-0.373l-2.518,-3.545c-14.28,-20.334 -29.12,-38.157 -45.275,-54.711l0.126,0.138l-6.336,-6.415l6.336,-6.414c46.506,-47.083 90.9,-65.678 118.594,-49.952c28.198,16.044 33.793,61.981 15.372,126.086l-2.504,8.594Zm-73.473,-31.369c21.302,1.917 41.527,5.021 60.312,9.215c12.798,-49.442 9.497,-86.081 -9.05,-96.62c-18.421,-10.498 -53.052,5.587 -89.516,40.612c13.19,14.098 25.75,29.356 37.289,45.372l0.965,1.421Zm-140.693,283.942l-0.644,0c-8.028,0 -15.567,-2.097 -22.057,-5.78l0.21,0.11c-28.198,-16.016 -33.793,-61.967 -15.344,-126.072l2.462,-8.608l8.797,2.193c21.54,5.352 45.304,9.118 70.592,11.201l4.378,0.373l2.504,3.545c14.294,20.348 29.134,38.171 45.303,54.725l-0.14,-0.138l6.336,6.415l-6.336,6.414c-35.4,35.867 -69.528,55.608 -96.061,55.608l0,0.014Zm-22.198,-118.21c-12.798,49.442 -9.497,86.095 9.05,96.634c18.407,10.36 53.024,-5.614 89.516,-40.612c-13.19,-14.099 -25.75,-29.37 -37.303,-45.386l-0.965,-1.42c-22.785,-2.015 -43.346,-5.27 -63.417,-9.809l3.133,0.593l-0.014,0Zm111.601,11.547c-15.343,0 -31.12,-0.662 -46.925,-1.945l-4.378,-0.373l-2.518,-3.545c-7.609,-10.595 -15.931,-23.327 -23.736,-36.405l-1.44,-2.621c-6.322,-10.457 -13.581,-23.893 -20.281,-37.633l-1.469,-3.352l-1.86,-3.918l1.86,-3.917c8.169,-17.092 15.414,-30.515 23.19,-43.606l-1.44,2.634c7.72,-13.174 16.211,-26.307 25.176,-39.026l2.518,-3.545l4.378,-0.372c14.056,-1.242 30.407,-1.959 46.925,-1.959c16.519,0 32.87,0.717 49.024,2.11l-2.098,-0.151l4.364,0.372l2.504,3.545c16.462,22.983 32.086,49.207 45.485,76.701l1.455,3.31l1.888,3.918l-1.888,3.918c-14.798,30.79 -30.436,57.015 -48.101,81.735l1.161,-1.724l-2.504,3.545l-4.364,0.373c-15.791,1.283 -31.596,1.945 -46.939,1.945l0.013,-0.014Zm-40.967,-19.934c27.596,2.042 54.339,2.042 81.963,0c14.043,-19.934 27.666,-42.819 39.541,-66.712l1.412,-3.146c-13.245,-27.01 -26.882,-49.896 -42.128,-71.596l1.161,1.739c-12.266,-0.98 -26.547,-1.532 -40.968,-1.532c-14.42,0 -28.701,0.552 -42.841,1.642l1.874,-0.11c-14.099,19.961 -27.736,42.847 -39.583,66.767l-1.385,3.09c13.302,27.039 26.939,49.924 42.157,71.638l-1.189,-1.794l-0.014,0.014Z" style="fill:#000;fill-rule:nonzero;"/></svg>